<svg width="2471" height="2468" viewBox="0 0 2471 2468" fill="none" xmlns="http://www.w3.org/2000/svg">
<path d="M1552.81 2195.91C1102.04 2327.43 392.665 2023.22 219.905 1355.52C126.459 994.734 534.495 300.958 1107.87 228.829C1681.25 156.699 2063.53 556.271 2198.25 925.032C2332.98 1293.79 2235.78 1996.61 1552.81 2195.91Z" fill="#263238"/>
<path opacity="0.1" d="M1292.36 2078.68C1611.33 2047.32 1871.01 1799.12 1853.03 1763.27C1835.04 1727.41 1770.54 1775.31 1727.54 1786.9C1684.54 1798.49 1872.66 1585.47 1872.67 1491.65C1872.69 1397.82 1701.25 1722.03 1496.32 1820.49C1291.39 1918.94 1390.47 1915.17 1414.52 1945.69C1438.56 1976.21 1219.52 2074.99 1017.63 2031.32C815.739 1987.65 675.906 1885.34 606.661 1820.68C606.569 1820.99 812.215 2125.92 1292.36 2078.68Z" fill="white"/>
<path opacity="0.1" d="M1273.27 1673.03C1277.65 1749.14 1096.39 1809.86 934.125 1751.14C771.857 1692.43 724.487 1595.11 755.79 1590.49C787.093 1585.87 608.334 1541.67 499.505 1351.91C390.676 1162.15 387.843 909.769 532.158 730.776C532.158 730.776 446.144 882.421 524.943 1098.12C603.742 1313.82 866.72 1292.7 933.578 1339.97C1000.44 1387.25 984.212 1488.46 895.268 1527.19C806.325 1565.91 914.586 1658.94 1015.9 1635.82C1117.22 1612.7 1188.89 1568.36 1207.65 1583.92C1226.42 1599.47 1468.03 1489.98 1467.99 1283.41C1467.95 1076.84 1555.16 1114.02 1546.02 1263.11C1536.88 1412.19 1279.73 1624.64 1227.63 1649.16C1175.52 1673.69 1272.25 1655.34 1273.27 1673.03Z" fill="white"/>
<path opacity="0.1" d="M1803.09 1217.95C1714.52 1291.85 1757.18 1014.82 1664.04 787.496C1570.9 560.169 1233.86 443.282 1032.63 519.992C831.397 596.702 775.856 910.106 963.285 975.207C963.285 975.207 798.958 1009.35 719.32 850.795C639.682 692.241 685.08 519.406 805.948 478.67C926.817 437.934 970.573 341.795 1017.23 330.93C1063.88 320.064 1007.06 360.883 1041.66 387.565C1076.25 414.246 1252.96 336.238 1503.11 383.002C1753.26 429.766 1829.07 524.768 1909.81 664.04C1990.55 803.312 1855.43 652.956 1816.55 693.496C1777.67 734.035 1839.85 797.941 1853.41 872.704C1866.97 947.467 1852.89 1026.07 1796.36 988.525C1739.82 950.98 1845.8 1182.36 1803.09 1217.95Z" fill="white"/>
</svg>
