<svg width="789" height="849" viewBox="0 0 789 849" fill="none" xmlns="http://www.w3.org/2000/svg">
<path d="M575.144 465.305C560.873 465.305 546.155 459.186 536.187 447.925C522.327 432.271 517.789 407.953 524.627 385.973C528.878 372.315 536.856 361.09 547.093 354.369C557.018 347.854 569.379 345.805 581.006 348.745C592.588 351.673 598.095 361.219 602.319 371.101C605.116 377.644 607.932 384.71 609.589 392.059C613.322 408.626 611.062 425.952 609.067 441.238C608.687 444.155 608.212 447.782 606.395 451.111C604.64 454.325 601.745 457.075 597.546 459.513C590.805 463.43 583.042 465.305 575.144 465.305ZM552.654 362.839C544.374 368.276 537.857 377.56 534.304 388.981C528.496 407.65 532.214 428.149 543.773 441.206C556.173 455.213 577.553 459.405 592.455 450.75C595.006 449.267 596.658 447.796 597.501 446.253C598.409 444.589 598.719 442.219 599.017 439.925C600.994 424.768 603.04 409.098 599.702 394.285C598.307 388.095 596.016 382.132 593.001 375.083C589.196 366.186 585.447 360.32 578.52 358.568C569.644 356.322 560.211 357.879 552.654 362.839Z" fill="#A9A7C0"/>
<path d="M491.754 523.321C489.092 523.321 486.392 523.285 483.653 523.215C475.391 523 465.875 522.415 457.468 518.146C445.586 512.114 438.592 500.25 432.971 490.716L405.991 444.949C402.163 438.457 397.824 431.099 395.914 422.853C393.322 411.666 395.428 400.302 397.286 390.275C399.487 378.397 401.763 366.115 407.415 354.77C413.989 341.568 425.315 329.736 440.171 320.547C454.232 311.851 469.594 306.464 482.765 302.342C487.628 300.819 492.835 299.268 498.331 298.504C505.591 297.494 512.766 297.94 519.706 298.367C526.371 298.778 533.923 299.241 540.965 301.946C548.183 304.717 554.223 309.594 559.552 313.896L572.316 324.201C575.613 326.861 579.348 329.878 582.126 333.921C584.526 337.41 585.934 341.213 587.292 344.89C588.833 349.053 590.288 352.985 592.955 355.498L586.008 362.876C581.608 358.734 579.579 353.247 577.787 348.406C576.589 345.17 575.459 342.113 573.773 339.663C571.832 336.838 568.84 334.422 565.95 332.088L553.186 321.783C548.208 317.763 543.06 313.609 537.331 311.41C531.745 309.266 525.306 308.868 519.08 308.484C512.64 308.086 505.98 307.677 499.723 308.545C494.995 309.203 490.249 310.62 485.791 312.014C473.221 315.948 458.602 321.065 445.498 329.168C432.25 337.363 422.217 347.778 416.483 359.29C411.467 369.364 409.322 380.935 407.247 392.125C405.487 401.621 403.668 411.44 405.783 420.568C407.342 427.298 411.091 433.657 414.718 439.806L441.699 485.572C446.648 493.97 452.808 504.419 462.053 509.113C468.577 512.426 476.43 512.894 483.913 513.088C509.551 513.748 531.322 511.213 550.474 505.328C554.68 504.035 559.062 502.49 562.598 499.949C565.382 497.949 567.832 495.181 569.909 492.743C582.264 478.241 592.331 462.007 599.836 444.495L609.151 448.486C601.246 466.938 590.638 484.038 577.622 499.317C575.156 502.209 572.216 505.52 568.508 508.182C563.787 511.572 558.481 513.47 553.45 515.016C535.306 520.593 515.053 523.328 491.752 523.328L491.754 523.321Z" fill="#A9A7C0"/>
<path d="M469.478 462.517C464.723 452.551 462.472 443.641 462.597 435.277C462.685 429.392 463.935 423.826 465.146 418.441L471.629 389.596C473.094 383.084 474.608 376.347 477.864 370.004C480.468 364.93 484.248 360.008 489.762 354.519C496.644 347.665 503.913 342.113 511.366 338.02C532.304 326.524 558.048 324.938 580.233 333.774L576.484 343.188C557.079 335.462 534.557 336.849 516.243 346.903C509.624 350.537 503.12 355.516 496.915 361.699C492.174 366.419 488.987 370.528 486.881 374.632C484.214 379.829 482.843 385.924 481.518 391.82L475.035 420.665C473.939 425.546 472.804 430.592 472.73 435.428C472.63 442.197 474.56 449.629 478.626 458.153L469.48 462.519L469.478 462.517Z" fill="#A9A7C0"/>
<path d="M533.496 567.105C547.528 569.108 561.252 562.701 570.167 551.802C575.231 546.222 580.377 540.64 585.378 535.056C590.273 529.479 594.926 523.287 595.922 515.712C595.802 523.411 591.678 530.464 587.375 536.615C582.967 542.81 578.524 548.866 574.097 554.999C565.078 568.868 549.519 577.695 532.726 577.207L533.496 567.103V567.105Z" fill="#A9A7C0"/>
<path d="M351.045 298.694C366.961 295.146 377.924 280.505 391.84 271.639C403.171 264.306 415.686 260.516 428.413 257.163C457.348 249.617 488.398 245.292 517.736 253.021C526.029 255.226 534.043 258.437 541.462 262.666C526.246 254.926 509.164 251.683 492.215 251.653C471.029 251.746 450.121 256.245 430.004 262.634C418.228 266.345 406.029 270.733 396.138 277.906C382.427 287.908 371.022 304.019 353.413 308.545L351.047 298.692L351.045 298.694Z" fill="#A9A7C0"/>
<path d="M435.692 184.698C468.173 179.175 501.038 188.831 531.424 199.674C546.804 205.473 563.331 209.938 576.273 220.745C589.244 231.479 597.979 245.791 607.572 259.176C626.24 286.052 644.507 313.573 657.284 343.988C672.427 380.927 681.582 426.088 676.906 465.992C674.936 482.654 668.94 498.896 662.298 514.057C657.435 525.178 647.75 547.666 642.868 558.779C627.849 593.061 618.25 620.862 579.24 633.702C563.559 639.142 547.29 641.343 531.496 645.368C507.429 650.633 488.254 665.277 464.716 673.376C449.337 678.35 431.503 681.476 416.389 674.201C431.912 679.528 448.492 674.983 463.093 669.055C481.798 661.112 498.071 648.08 517.214 640.651C543.008 630.534 572.818 629.237 595.628 612.817C608.078 603.735 615.488 590.099 621.759 576.045L641.253 531.481C650.215 510.326 662.319 487.348 664.97 464.42C667.008 448.84 666.459 432.958 664.703 417.286C660.52 377.438 646.624 339.425 626.356 304.926C618.365 290.965 609.547 277.408 600.677 263.831C591.642 250.326 583.55 236.162 571.9 225.904C560.257 215.558 543.962 210.307 529.684 204.282C499.856 192.363 468.338 181.227 435.69 184.696L435.692 184.698Z" fill="#A9A7C0"/>
<path d="M669.387 246.372C702.324 259.545 716.032 295.953 724.231 327.833C730.353 350.185 737.426 378.431 743.41 400.98C752.266 436.1 760.734 472.653 755.265 509.057C753.295 521.276 749.808 532.799 744.303 543.895C733.367 566.127 714.884 583.013 701.142 603.08C674.901 641.097 654.722 688.299 611.046 710.4C580.068 726.092 544.286 722.355 511.97 732.565C500.217 736.237 488.321 741.647 476.136 744.885C471.316 746.311 465.325 747.656 460.378 748.537C444.634 751.36 428.2 752.063 412.304 750.273C391.236 748.135 370.384 741.963 351.686 731.998C347.899 730.142 344.366 727.81 340.753 725.674C372.716 741.808 408.795 747.547 443.542 742.922C448.441 742.158 453.897 741.252 458.647 740.115C476.109 736.293 491.62 728.427 508.49 722.249C516.677 719.284 525.226 717.177 533.624 715.535C558.381 710.644 582.787 709.682 604.836 698.269C626.242 686.963 642.07 667.922 655.432 648.033C669.244 627.378 681.499 604.384 697.214 584.481C709.949 568.202 724.757 553.757 733.532 535.106C736.662 528.973 738.755 522.309 740.635 515.687C741.159 512.946 742.023 509.699 742.502 506.93L743.388 500.996C747.426 468.237 740.714 435.246 733.729 403.278C728.488 379.563 722.875 353.026 717.799 329.39C711.363 297.664 700.421 261.952 669.391 246.368L669.387 246.372Z" fill="#A9A7C0"/>
<path d="M753.065 667.941C748.767 674.499 744.548 680.852 740.702 687.367C732.826 700.456 726.77 714.042 719.606 727.619C702.031 763.151 669.275 791.914 629.447 797.81C656.85 784.888 680.52 765.786 697.073 740.783C713.825 714.492 725.495 685.598 753.063 667.941H753.065Z" fill="#A9A7C0"/>
<path d="M296.464 256.306C301.336 253.558 305.629 248.975 309.93 244.042C325.464 224.691 339.023 221.285 362.584 217.296C350.352 221.061 337.281 225.102 327.715 233.725C323.087 237.866 319.65 243.169 315.952 248.674C312.059 254.475 307.928 260.317 302.106 264.722L296.459 256.306H296.464Z" fill="#A9A7C0"/>
<path d="M230.851 236.625C236.236 231.025 241.278 225.125 246.016 218.86C248.432 215.703 251.069 212.237 254.529 209.426C257.93 206.646 261.646 204.673 265.252 202.886C272.886 199.385 290.065 190.359 297.799 187.686C301.611 186.402 305.685 185.647 309.654 186.12C301.536 186.09 294.648 190.578 287.98 194.694L267.731 207.304C264.421 209.398 261.282 211.568 258.773 214.124C256.283 216.623 254.346 219.76 252.292 223.145C248.138 230.051 243.519 236.804 238.523 243.242L230.851 236.623V236.625Z" fill="#A9A7C0"/>
<path d="M92.8484 581.595C89.3366 569.462 79.3593 561.517 71.1335 552.511C54.162 534.168 42.9238 511.09 35.8686 487.245C25.401 451.449 24.0089 413.607 22.018 376.84C19.8847 340.02 20.2802 300.543 33.7082 265.178C42.4154 241.558 53.9338 219.661 66.137 197.778C78.5209 176.048 92.6382 154.819 110.373 136.968C123.707 123.452 139.164 111.782 156.26 103.45C161.817 100.662 167.891 98.2186 173.794 96.2752C185.753 92.2933 198.302 90.1646 210.677 90.3363C162.562 101.624 125.661 135.108 98.2765 174.59C84.3988 194.307 72.7199 215.681 61.7393 237.201C50.8107 258.821 41.4436 280.898 37.5138 304.281C31.3828 339.552 33.8257 377.104 34.6483 413.158C35.5567 437.426 37.2132 461.74 42.9871 485.335C48.5418 508.842 58.171 531.617 73.3346 550.608C80.8554 560 90.5004 569.27 92.8506 581.595H92.8484Z" fill="#A9A7C0"/>
<path d="M504.684 0.548208C540.093 -3.74776 572.027 18.01 599.346 37.6594C613.235 47.7767 626.955 58.0364 640.767 68.2171C695.209 109.403 758.214 150.516 780.5 218.73C786.016 235.392 788.871 252.932 788.157 270.2C775.366 200.805 728.454 150.46 674.403 108.754C648.263 88.0517 619.965 65.3086 594.239 44.3034C568.33 23.3794 539.623 0.505271 504.684 0.548208Z" fill="#A9A7C0"/>
<path d="M468.267 823.568C452.039 839.419 427.213 840.492 405.893 840.684C384.162 840.757 362.561 840.506 340.825 839.914C307.865 839.154 272.314 834.75 245.552 813.553C236.701 806.613 228.965 798.219 223.609 788.565C232.122 795.569 240.863 801.593 250.142 806.509C278.25 821.548 309.816 826.174 341.386 827.783C362.942 829.021 384.639 830.47 406.205 832.284C427.255 833.86 449.89 835.735 468.269 823.57L468.267 823.568Z" fill="#A9A7C0"/>
<path d="M86.6992 689.191C95.1736 698.938 102.43 709.532 110.034 719.819C117.666 730.184 124.199 740.117 132.635 749.884C107.759 748.494 88.1591 711.471 86.6992 689.191Z" fill="#A9A7C0"/>
<path d="M160.409 467.355C167.823 487.464 166.135 509.271 170.829 529.809C173.118 540.581 177.36 551.3 182.442 561.049C195.846 586.029 216.638 606.569 240.751 621.314C227.339 614.065 214.792 605.181 203.701 594.662C188.334 580.12 175.756 562.289 168.025 542.547C166.086 537.23 164.138 531.268 162.874 525.777C159.408 510.989 158.542 495.721 154.517 481.229C153.528 477.742 152.362 474.35 150.985 471.089L160.407 467.355H160.409Z" fill="#A9A7C0"/>
<path d="M137.173 662.918C141.222 660.669 146.418 661.928 150.305 664.448C154.192 666.967 157.227 670.583 160.788 673.546C165.602 677.548 179.895 684.644 177.737 692.922C176.309 698.4 169.85 698.72 165.107 698.241C157.746 697.5 151.898 693.471 147.22 687.946C145.317 685.699 132.744 665.374 137.171 662.915L137.173 662.918Z" fill="#A9A7C0"/>
<path d="M336.886 683.646C329.076 680.22 321.593 676.051 314.57 671.215C313.657 670.587 312.656 669.771 312.667 668.664C312.681 667.088 314.608 666.368 316.161 666.099C321.261 665.211 326.491 664.621 331.609 665.403C336.728 666.185 341.774 668.474 345.026 672.505C346.68 674.557 347.837 677.443 346.66 679.8C345.354 682.415 341.896 683.059 338.983 682.806C336.07 682.553 333.062 681.739 330.292 682.672" fill="#A9A7C0"/>
<path d="M708.622 681.845C703.499 688.566 701.888 696.163 697.75 703.573C693.508 711.81 685.777 716.592 676.79 717.754C681.387 713.413 686.053 710.43 689.377 705.386C695 697.388 698.372 685.483 708.622 681.845Z" fill="#A9A7C0"/>
<path d="M640.257 734.198C634.933 735.389 630.163 738.872 627.403 743.579C630.594 744.162 633.846 744.749 637.066 744.345C640.287 743.94 643.525 742.383 645.163 739.581C646.8 736.779 646.293 732.671 643.563 730.917" fill="#A9A7C0"/>
<path d="M645.54 451.856C646.04 455.275 645.757 458.918 644.049 461.921C642.34 464.924 639.016 467.137 635.572 466.881C635.107 466.847 634.625 466.762 634.252 466.479C633.583 465.973 633.479 465.024 633.448 464.185C633.269 459.241 632.77 447.596 636.372 443.711C641.985 437.657 644.675 445.921 645.54 451.856Z" fill="#A9A7C0"/>
<path d="M533.696 474.779C539.761 474.216 545.897 474.388 551.921 475.29C554.846 475.726 558.375 476.975 558.719 479.913C558.934 481.739 557.643 483.506 555.982 484.29C554.319 485.075 552.378 485.034 550.577 484.672C544.764 483.511 539.919 479.323 534.125 478.085C527.492 476.666 519.522 478.973 514.525 474.383C510.98 471.129 510.616 465.755 510.496 460.944C521.391 460.237 530.724 468.157 538.733 475.579" fill="#A9A7C0"/>
<path d="M620.486 158.972C624.87 160.361 628.958 162.676 632.404 165.722C633.403 166.603 634.375 167.588 634.838 168.838C635.878 171.649 633.873 174.849 631.195 176.194C628.517 177.539 625.383 177.502 622.387 177.437C621.455 177.417 620.475 177.383 619.679 176.897C618.859 176.395 618.378 175.498 617.989 174.619C616.493 171.225 615.926 167.089 617.86 163.923C619.794 160.757 624.886 159.584 627.272 162.422" fill="#A9A7C0"/>
<path d="M297.433 107.809C294.432 107.45 291.358 107.093 288.416 107.782C285.469 108.474 282.87 110.164 280.341 111.825C271.345 117.73 262.349 123.633 253.354 129.538C251.524 130.74 249.63 132.006 248.518 133.895C247.406 135.784 247.348 138.482 248.984 139.938C249.587 140.475 250.356 140.792 251.126 141.038C256.308 142.688 262.349 141.253 266.235 137.45C271.948 131.859 274.267 125.312 282.066 121.99C288.599 119.208 297.663 116.921 297.433 107.812V107.809Z" fill="#A9A7C0"/>
<path d="M345.661 104.643C342.786 104.619 339.914 105.712 337.785 107.647C336.958 108.399 336.199 109.385 336.242 110.501C336.326 112.675 339.067 113.518 341.227 113.773C343.067 113.99 344.969 114.203 346.746 113.674C348.522 113.145 350.154 111.672 350.267 109.821C350.377 107.97 348.375 106.146 346.671 106.876" fill="#A9A7C0"/>
<path d="M130.026 218.212C128.58 220.031 127.136 221.85 125.689 223.667C123.165 226.842 120.542 231.197 122.695 234.632C124.302 237.194 128.13 237.703 130.754 236.202C133.38 234.7 134.855 231.692 135.255 228.693C135.655 225.694 135.131 222.659 134.609 219.681C131.615 219.066 128.727 217.95 126.096 216.393" fill="#A9A7C0"/>
<path d="M79.9863 102.79C77.5932 101.294 74.3096 101.492 72.0001 103.113C69.6882 104.735 68.3956 107.63 68.5312 110.451C68.6012 111.913 69.0826 113.438 70.2125 114.367C70.9989 115.013 72.0114 115.305 72.9989 115.544C75.7537 116.213 78.6553 116.602 81.41 115.935C84.1648 115.269 86.7546 113.377 87.6133 110.677C88.6483 107.427 86.6461 103.526 83.401 102.473" fill="#A9A7C0"/>
<path d="M521.025 539.951L499.925 528.568L455.482 504.573L484.151 474.115C510.037 482.311 526.826 499.707 521.027 539.951H521.025Z" fill="#FB132B"/>
<path d="M499.922 528.568L455.48 504.573L448.68 511.802L447.082 509.461L472.889 474.117C475.131 475.805 477.292 477.507 479.353 479.206C498.64 495.116 509.382 511.398 499.924 528.568H499.922Z" fill="#FEBD1C"/>
<path d="M485.768 472.393L448.68 511.802L358.973 380.659C377.845 376.797 397.076 366.921 406.454 349.943C429.706 369.524 453.735 401.153 478.652 447.057C479.913 449.387 479.486 452.282 477.606 454.162L477.391 454.377L486.017 464.849C487.84 467.068 487.739 470.3 485.768 472.393Z" fill="white"/>
<path d="M485.771 472.393L448.682 511.802L432.188 487.694C451.206 482.831 465.448 470.411 477.396 454.377L486.022 464.85C487.845 467.069 487.744 470.3 485.773 472.393H485.771Z" fill="#198BFD"/>
<path d="M406.457 349.942C397.077 366.923 377.845 376.796 358.976 380.658L323.137 328.266C349.914 319.832 377.601 325.62 406.46 349.94L406.457 349.942Z" fill="#FF1B40"/>
<path d="M448.679 515.443C448.584 515.443 448.489 515.44 448.397 515.431C447.296 515.346 446.295 514.767 445.671 513.854L444.071 511.511L320.125 330.323C319.475 329.371 319.312 328.167 319.689 327.075C320.067 325.986 320.937 325.139 322.037 324.791C348.229 316.545 374.534 321.805 400.221 340.427C427.231 360.006 454.695 395.298 481.854 445.317C483.365 448.115 483.354 451.46 481.985 454.221L488.828 462.531C491.811 466.158 491.637 471.468 488.421 474.885L451.33 514.295C450.638 515.029 449.678 515.44 448.677 515.44L448.679 515.443ZM329.002 330.4L449.131 506.008L483.117 469.898C483.829 469.143 483.867 467.968 483.205 467.163L474.581 456.693C473.391 455.245 473.492 453.13 474.816 451.803L475.031 451.588C475.77 450.849 475.942 449.701 475.452 448.791C425.706 357.161 377.745 318.357 329.004 330.4H329.002Z" fill="#371A45"/>
<path d="M432.187 491.334C430.562 491.334 429.082 490.24 428.659 488.593C428.162 486.645 429.337 484.661 431.287 484.163C447.615 479.99 461.336 469.834 474.473 452.2C475.675 450.589 477.955 450.254 479.569 451.454C481.182 452.657 481.514 454.939 480.315 456.55C466.322 475.332 450.875 486.672 433.09 491.219C432.788 491.296 432.485 491.332 432.187 491.332V491.334Z" fill="#371A45"/>
<path d="M358.964 384.298C357.269 384.298 355.752 383.109 355.398 381.385C354.995 379.414 356.265 377.491 358.236 377.089C379.051 372.836 395.465 362.3 403.261 348.185C404.235 346.425 406.45 345.787 408.21 346.759C409.971 347.731 410.61 349.948 409.636 351.708C400.807 367.692 382.604 379.545 359.694 384.225C359.447 384.275 359.201 384.3 358.961 384.3L358.964 384.298Z" fill="#371A45"/>
<path d="M521.022 543.591C520.428 543.591 519.833 543.447 519.293 543.155L453.749 507.777C451.979 506.821 451.319 504.613 452.275 502.842C453.231 501.072 455.437 500.412 457.211 501.368L518.059 534.213C521.108 503.739 510.163 486.175 483.05 477.586C481.131 476.978 480.069 474.933 480.677 473.016C481.283 471.098 483.33 470.035 485.246 470.643C500.331 475.418 510.889 482.745 517.528 493.043C525.191 504.927 527.514 520.444 524.629 540.47C524.459 541.648 523.725 542.669 522.66 543.203C522.145 543.462 521.582 543.591 521.022 543.591Z" fill="#371A45"/>
<g opacity="0.6">
<path d="M394.859 351.214C396.258 348.79 392.754 344.147 387.032 340.843C381.31 337.539 375.537 336.826 374.137 339.251C372.737 341.675 376.241 346.319 381.963 349.622C387.685 352.926 393.459 353.639 394.859 351.214Z" fill="white"/>
</g>
<path d="M432.978 379.042C474.292 383.77 513.419 430.738 442.44 446.494L432.978 379.042Z" fill="white"/>
<path d="M442.442 450.135C441.705 450.135 440.982 449.911 440.367 449.486C439.531 448.908 438.977 448.006 438.837 447.001L429.373 379.549C429.217 378.432 429.585 377.307 430.372 376.5C431.158 375.693 432.275 375.293 433.393 375.424C460.066 378.477 484.314 397.444 485.284 416.016C485.761 425.134 480.931 441.681 443.23 450.049C442.968 450.108 442.706 450.135 442.442 450.135ZM437.267 383.397L445.493 442.029C467.083 436.562 478.59 427.53 478.009 416.395C477.293 402.667 458.125 387.519 437.267 383.395V383.397Z" fill="#371A45"/>
<path d="M247.171 430.74C231.698 447.025 216.672 463.47 219.54 486.253L198.521 472.81C198.324 458.774 192.06 451.422 182.46 447.75C178.401 446.198 173.803 447.183 170.718 450.243L166.994 453.94C156.662 450.236 147.738 450.017 143.211 460.685C141.715 464.209 141.53 468.114 142.242 471.874C142.791 474.78 142.746 478.007 142.716 481.792C142.694 484.604 143.331 487.392 144.553 489.923C152.325 506.023 161.943 510.994 172.998 507.302C208.604 560.27 263.076 570.098 272.836 503.43V501.03L247.171 430.742V430.74Z" fill="white"/>
<g opacity="0.3">
<path d="M271.491 497.335C269.683 504.671 267.22 510.82 264.241 515.871C262.35 519.075 260.252 521.841 257.972 524.169L264.241 515.871C246.106 498.172 236.129 475.765 234.271 448.672L223.767 465.919C219.489 484.294 220.961 503.053 257.954 524.187C236.718 545.843 200.003 530.291 173.63 491.058C162.575 494.75 152.957 489.781 145.186 473.682C143.963 471.151 143.326 468.36 143.348 465.551C143.362 463.727 143.378 462.039 143.33 460.446C143.294 460.529 143.251 460.599 143.215 460.685C141.719 464.208 141.534 468.113 142.246 471.874C142.795 474.78 142.749 478.007 142.72 481.792C142.7 484.603 143.335 487.392 144.557 489.923C152.329 506.022 161.947 510.994 173.002 507.301C208.608 560.27 263.08 570.098 272.84 503.43V501.03L271.491 497.335Z" fill="#371A45"/>
</g>
<path d="M234.086 553.89C213.614 553.89 190.025 538.123 171.465 511.502C162.448 513.516 150.695 511.017 141.276 491.505C139.812 488.472 139.05 485.103 139.075 481.761V481.39C139.104 477.966 139.129 475.008 138.664 472.547C137.766 467.808 138.18 463.214 139.859 459.259C146.042 444.699 159.404 447.589 166.039 449.754L168.155 447.655C172.254 443.587 178.38 442.288 183.763 444.347C195.207 448.726 201.368 457.61 202.095 470.771L215.562 479.385C216.142 458.118 231.141 442.328 244.533 428.232C245.401 427.316 246.68 426.916 247.914 427.174C249.147 427.432 250.162 428.306 250.594 429.49L276.259 499.778C276.406 500.178 276.48 500.601 276.48 501.028V503.428C276.48 503.604 276.469 503.78 276.442 503.954C272.41 531.493 260.291 548.907 242.316 552.989C239.647 553.594 236.895 553.89 234.086 553.89ZM172.997 503.656C174.186 503.656 175.33 504.239 176.021 505.267C195.614 534.413 221.003 550.347 240.702 545.886C255.484 542.53 265.597 527.362 269.195 503.161V501.674L245.771 437.524C232.734 451.44 220.687 466.195 223.155 485.801C223.331 487.202 222.68 488.579 221.487 489.333C220.291 490.086 218.771 490.086 217.58 489.322L196.561 475.876C195.53 475.216 194.9 474.084 194.882 472.859C194.724 461.569 190.364 454.672 181.16 451.151C178.448 450.114 175.359 450.771 173.287 452.828L169.562 456.525C168.566 457.512 167.092 457.842 165.768 457.368C153.386 452.929 149.138 456.053 146.566 462.109C145.452 464.735 145.195 467.876 145.823 471.196C146.422 474.357 146.394 477.645 146.363 481.451V481.819C146.343 484.05 146.853 486.305 147.836 488.339C156.602 506.497 165.737 505.887 171.847 503.846C172.227 503.719 172.615 503.659 173 503.659L172.997 503.656Z" fill="#371A45"/>
<path d="M221.829 483.421L239.546 502.418L217.253 489.085C212.643 485.973 217.818 479.564 221.831 483.419L221.829 483.421Z" fill="#371A45"/>
<path d="M198.44 533.992C209.389 527.127 220.641 517.943 223.188 504.7C223.961 500.522 223.794 496.156 222.917 491.862L228.503 490.617C229.642 495.473 230.013 500.646 229.215 505.731C226.799 520.971 214.571 532.071 202.368 540.128L198.443 533.992H198.44Z" fill="#371A45"/>
<path d="M169.72 456.354C166.947 459.491 164.305 463.64 165.173 467.895C165.731 470.322 167.661 472.069 170.256 471.916C173.275 471.766 175.889 469.4 178.011 467.168C179.236 465.909 180.294 464.454 181.539 463.007C181.096 466.881 179.548 470.58 176.689 473.407C171.173 478.996 162.032 477.4 159.334 469.776C157.004 463.267 160.037 456.375 164.269 451.521L169.72 456.352V456.354Z" fill="#371A45"/>
<path d="M161.28 496.172C168.634 494.217 172.18 489.839 169.87 482.262C169.264 480.077 168.279 477.892 167.239 475.74L173.892 472.775C177.16 480.721 179.029 492.14 170.32 497.457C167.723 499.123 164.943 499.9 162.252 500.411L161.28 496.172Z" fill="#371A45"/>
<path d="M192.708 534.356L187.506 536.101C185.906 536.629 184.172 535.798 183.598 534.209L169.332 495.06C174.24 491.31 175.278 484.836 170.559 474.262C171.45 473.98 172.326 473.699 173.217 473.417L194.633 530.313C195.252 531.956 194.385 533.793 192.708 534.356Z" fill="#F68122"/>
<path d="M165.718 453.499C161.305 452.023 157.172 451.257 153.569 451.8L100.75 306.876C104.443 307.147 107.224 305.75 108.632 301.82L165.718 453.501V453.499Z" fill="#F68122"/>
<path d="M102.886 312.726C83.7589 325.449 64.9253 336.599 46.9889 342.965C43.8839 329.309 37.197 315.578 29.2536 301.82C20.5284 317.574 -3.11868 327.431 3.35578 353.042C8.90144 366.832 15.1183 382.289 22.6187 400.939C23.6198 403.432 24.2978 406.042 24.7068 408.698C28.3429 432.281 38.3631 439.639 52.5662 436.365C85.7634 436.078 112.793 423.33 134.985 400.802L102.886 312.729V312.726Z" fill="#6E62E5"/>
<g opacity="0.6">
<path d="M128.039 405.005C121.46 411.683 114.455 417.495 106.991 422.383C117.094 416.751 126.403 409.511 134.983 400.799L102.885 312.726C100.6 314.247 98.3196 315.741 96.0439 317.212L128.041 405.005H128.039Z" fill="white"/>
<path d="M40.0421 347.171C53.5379 342.382 67.5421 334.884 81.795 326.046C69.9376 333.049 58.2836 338.958 46.9866 342.967C43.8816 329.311 37.1947 315.58 29.2513 301.822C27.8434 304.365 26.0423 306.753 24.0469 309.079C31.2174 321.815 37.1675 334.527 40.0421 347.173V347.171Z" fill="white"/>
</g>
<path d="M110.234 297.498C111.134 291.953 107.368 286.728 101.823 285.828C96.2781 284.928 91.0533 288.693 90.1532 294.238C89.2531 299.783 93.0186 305.008 98.5636 305.908C104.109 306.808 109.333 303.043 110.234 297.498Z" fill="#371A45"/>
<path d="M166.989 457.579C166.569 457.579 166.144 457.507 165.731 457.353C165.346 457.211 164.962 457.08 164.587 456.96C160.226 455.502 156.804 454.994 154.106 455.398C152.108 455.699 150.262 454.325 149.964 452.336C149.665 450.348 151.037 448.492 153.026 448.194C156.885 447.613 161.414 448.221 166.869 450.042C167.303 450.183 167.776 450.345 168.246 450.517C170.133 451.213 171.1 453.306 170.404 455.193C169.862 456.664 168.469 457.577 166.987 457.577L166.989 457.579Z" fill="#371A45"/>
<path d="M168.672 455.435C165.809 458.671 163.21 462.811 163.587 467.236C163.863 470.142 165.847 472.788 168.769 473.403C170.215 473.798 171.637 473.715 173.217 473.416C172.249 474.268 171.006 474.897 169.635 475.073C166.753 475.613 163.761 474.112 162.087 471.782C157.646 465.742 160.866 457.426 165.307 452.44L168.674 455.432L168.672 455.435Z" fill="#371A45"/>
<path d="M165.718 455.751C165.479 455.751 165.239 455.713 165.004 455.636C160.455 454.115 156.823 453.593 153.901 454.027C152.837 454.194 151.82 453.577 151.454 452.572L98.6347 307.648C98.3725 306.929 98.4923 306.129 98.9533 305.519C99.4143 304.909 100.142 304.581 100.915 304.631C103.862 304.85 105.539 303.779 106.513 301.063C106.831 300.174 107.67 299.578 108.614 299.569H108.632C109.57 299.569 110.411 300.15 110.741 301.029L167.829 452.71C168.134 453.523 167.946 454.441 167.343 455.064C166.911 455.512 166.322 455.754 165.72 455.754L165.718 455.751ZM155.978 449.374C157.831 449.374 159.843 449.62 162.041 450.12L108.101 306.803C106.946 307.885 105.539 308.599 103.898 308.936L155.09 449.394C155.382 449.381 155.68 449.374 155.981 449.374H155.978Z" fill="#371A45"/>
<path d="M186.499 538.514C184.307 538.514 182.277 537.165 181.482 534.98L167.218 495.83C166.881 494.903 167.184 493.866 167.968 493.27C169.507 492.094 174.088 488.596 169.032 476.402C164.881 475.905 161.814 473.928 160.318 470.739C158.138 466.095 159.681 459.636 164.445 453.465C165.204 452.477 166.621 452.301 167.604 453.058C168.589 453.817 168.77 455.232 168.011 456.217C164.355 460.956 162.969 465.785 164.395 468.827C165.5 471.18 168.122 471.86 170.269 471.995L172.54 471.275C173.685 470.911 174.906 471.507 175.328 472.628L196.745 529.518C197.262 530.894 197.201 532.383 196.569 533.712C195.938 535.038 194.822 536.028 193.427 536.494L188.228 538.234C187.654 538.426 187.07 538.516 186.501 538.516L186.499 538.514ZM171.981 495.746L185.717 533.438C185.877 533.881 186.354 534.112 186.797 533.96L191.997 532.22C192.298 532.119 192.442 531.897 192.501 531.773C192.56 531.651 192.641 531.398 192.53 531.102L175.832 486.741C175.685 490.391 174.402 493.398 171.984 495.746H171.981Z" fill="#371A45"/>
<path d="M100.185 308.276C93.3355 308.276 87.7627 302.704 87.7627 295.854C87.7627 289.004 93.3355 283.432 100.185 283.432C107.035 283.432 112.607 289.004 112.607 295.854C112.607 302.704 107.035 308.276 100.185 308.276ZM100.185 287.936C95.819 287.936 92.2666 291.488 92.2666 295.854C92.2666 300.22 95.819 303.773 100.185 303.773C104.551 303.773 108.104 300.22 108.104 295.854C108.104 291.488 104.551 287.936 100.185 287.936Z" fill="#371A45"/>
<path d="M46.5471 439.345C42.3619 439.345 38.6535 438.262 35.4648 436.1C28.8389 431.612 24.5904 422.76 22.473 409.038C22.0775 406.444 21.4221 404.001 20.5272 401.779L1.26204 353.88C1.22363 353.787 1.19199 353.69 1.16939 353.593C-2.765 338.059 3.91737 327.797 10.9749 319.808C12.7488 317.801 14.6223 315.856 16.4347 313.975C20.6809 309.564 24.6921 305.399 27.2797 300.728C27.6729 300.019 28.4186 299.576 29.2299 299.569H29.248C30.0525 299.569 30.796 299.998 31.1982 300.697C40.2195 316.335 45.6499 328.588 48.5765 339.984C54.1967 337.871 60.0791 335.229 66.4812 331.952C66.723 331.83 66.9445 331.715 67.1705 331.598L67.453 331.451C67.4936 331.426 67.5343 331.403 67.575 331.381C77.4776 326.246 88.2978 319.724 101.626 310.855C102.2 310.473 102.924 310.373 103.577 310.59C104.234 310.805 104.754 311.309 104.989 311.957L137.09 400.03C137.388 400.848 137.19 401.764 136.579 402.383C113.296 426.01 85.2357 438.197 53.1798 438.601C53.0939 438.606 52.9651 438.61 52.8204 438.61C50.6261 439.101 48.5313 439.345 46.5448 439.345H46.5471ZM5.49699 352.341L24.7057 400.098C25.7317 402.643 26.4774 405.42 26.9249 408.356C28.8141 420.595 32.5361 428.678 37.9891 432.373C41.7223 434.902 46.3234 435.49 52.0589 434.165C52.2577 434.118 52.4589 434.107 52.669 434.107C52.7865 434.107 52.9063 434.107 53.0216 434.1C83.925 433.707 109.863 422.627 132.369 400.227L101.737 316.181C89.3983 324.314 79.1793 330.427 69.758 335.32C69.7151 335.344 69.6721 335.369 69.6292 335.392L69.2495 335.589C69.0032 335.717 68.7569 335.844 68.5128 335.966C61.0553 339.785 54.2509 342.77 47.7313 345.082C47.1279 345.297 46.4567 345.243 45.894 344.933C45.3291 344.623 44.9268 344.086 44.7844 343.46C42.3122 332.594 37.4535 320.992 29.1486 306.197C26.439 310.07 23.0131 313.63 19.6753 317.096C17.8968 318.945 16.0573 320.854 14.3488 322.789C7.77944 330.226 2.16372 338.956 5.49699 352.341Z" fill="#371A45"/>
<path d="M47.8958 345.024C36.5694 350.285 10.7823 358.484 11.4919 337.781C11.6117 335.669 12.0343 333.621 12.6399 331.646C12.6828 333.714 12.7664 335.752 13.0331 337.72C14.7958 355.451 36.0948 344.984 46.0766 340.902C48.8065 339.772 50.5918 343.752 47.8958 345.022V345.024Z" fill="#371A45"/>
<path d="M240.702 418.309C248.804 494.416 285.73 539.851 337.749 569.226C375.902 603.054 418.977 614.979 465.844 610.044C486.305 624.529 504.971 630.03 515.669 600.473C547.621 618.141 571.214 578.078 543.763 540.716C540.862 536.766 537.151 533.469 532.819 531.177C520.487 524.651 507.149 522.335 493.15 522.782C475.453 497.065 454.556 473.377 432.066 450.702C409.124 420.027 390.668 391.725 385.875 370.656C367.163 368.979 349.742 369.745 335.148 375.84L240.702 418.309Z" fill="white"/>
<g opacity="0.3">
<path d="M418.836 543.179C446.488 560.261 478.797 569.653 513.418 575.232C515.969 586.367 522.518 595.083 532.934 601.458C523.305 604.68 514.326 601.191 506.286 587.994C468.494 590.324 434.142 581.074 404.572 555.73L418.834 543.181L418.836 543.179Z" fill="#371A45"/>
</g>
<g opacity="0.3">
<path d="M339.808 571.017C362.976 589.268 386.223 594.531 409.549 586.68C432.577 586.35 453.733 590.323 472.201 600.474C476.653 613.548 486.714 619.01 499.525 620.743C508.331 616.684 512.521 610.006 513.423 601.46L500.756 586.118C466.51 585.028 432.545 574.934 398.747 559.375L339.81 571.017H339.808Z" fill="#371A45"/>
</g>
<g opacity="0.3">
<path d="M309.994 553.513C317.573 556.015 324.489 556.887 329.666 553.513L392.989 513.557C397.244 510.872 399.845 506.203 399.884 501.173C399.909 498.079 399.475 495.288 398.668 492.746L392.942 482.149L408.706 472.807C415.536 476.384 423.892 476.938 432.638 476.719C437.797 476.59 442.195 472.608 442.43 467.451C442.498 465.991 442.292 464.509 441.865 463.006L412.085 453.935L349.769 489.62L302.491 524.185L309.998 553.511L309.994 553.513Z" fill="#371A45"/>
</g>
<g opacity="0.3">
<path d="M252.945 463.009C330.772 440.158 339.569 405.444 351.522 371.275C317.332 406.059 283.168 438.058 249.272 438.052L252.945 463.009Z" fill="#371A45"/>
</g>
<path d="M493.254 625.858C485.44 625.858 476.403 622.086 465.013 614.181C415.975 619.013 372.495 605.018 335.77 572.587C276.908 539.225 244.674 489.006 237.23 419.073C237.062 417.507 237.921 416.011 239.356 415.367L333.8 372.898C347.544 367.158 364.21 365.424 386.346 367.408C387.918 367.549 389.222 368.688 389.573 370.229C394.703 392.782 416.501 423.981 434.978 448.697C459.689 473.628 479.404 496.805 495.175 519.474C510.097 519.241 523.023 522.172 534.671 528.334C539.367 530.818 543.577 534.486 546.847 538.935C564.853 563.448 561.658 587.576 551.07 599.621C542.806 609.025 530.314 611.266 517.763 605.858C513.329 616.27 507.507 622.493 500.048 624.83C497.874 625.512 495.621 625.858 493.257 625.858H493.254ZM465.994 606.778C466.744 606.778 467.481 607.011 468.098 607.447C481.298 616.794 490.757 620.107 497.867 617.881C503.79 616.023 508.676 609.876 512.393 599.61C512.755 598.607 513.539 597.816 514.538 597.441C515.534 597.065 516.646 597.147 517.58 597.664C528.49 603.696 538.702 602.656 545.597 594.815C554.6 584.573 555.904 563.572 540.976 543.249C538.352 539.677 534.994 536.748 531.263 534.773C520.248 528.945 507.876 526.334 493.413 526.8C492.127 526.823 490.999 526.246 490.296 525.225C474.55 502.344 454.704 478.93 429.626 453.646C429.506 453.527 429.396 453.398 429.296 453.265C402.449 417.365 388.07 392.857 383.116 374.45C363.496 372.927 348.694 374.572 336.697 379.582L244.762 420.924C252.472 487.119 283.543 534.734 339.687 566.438C339.91 566.564 340.121 566.713 340.313 566.883C376.344 598.83 417.324 611.885 465.61 606.803C465.739 606.79 465.865 606.783 465.992 606.783L465.994 606.778Z" fill="#371A45"/>
<path d="M338.15 565.607C350.586 566.08 362.878 565.897 374.893 562.963C388.597 559.82 401.223 552.521 410.732 542.109C415.146 537.488 419.213 532.749 424.092 528.442C423.609 532.964 422.083 537.185 420.09 541.248C411.186 557.076 394.595 567.924 377.072 571.982C364.168 575.151 350.297 574.981 337.353 572.846C332.88 572.012 333.592 565.438 338.153 565.605L338.15 565.607Z" fill="#371A45"/>
<path d="M515.669 604.115C515.095 604.115 514.512 603.979 513.969 603.692C507.66 600.352 503.192 594.901 500.661 587.458C500.618 587.462 500.577 587.467 500.537 587.471C459.247 591.907 425.835 582.676 398.378 559.259C396.848 557.953 396.665 555.655 397.971 554.125C399.275 552.597 401.576 552.412 403.106 553.718C428.958 575.765 460.58 584.436 499.759 580.228C500.783 580.118 501.811 580 502.842 579.874C504.665 579.645 506.367 580.816 506.817 582.597C508.595 589.643 512.048 594.436 517.375 597.252C519.153 598.194 519.831 600.397 518.891 602.174C518.238 603.408 516.975 604.113 515.669 604.113V604.115Z" fill="#371A45"/>
<path d="M467.246 587.889C465.823 587.889 464.469 587.048 463.886 585.649C463.111 583.794 463.985 581.661 465.843 580.886C488.225 571.535 495.018 540.394 489.687 523.899C489.07 521.985 490.118 519.933 492.032 519.314C493.949 518.695 495.998 519.746 496.618 521.66C502.916 541.153 495.151 576.536 468.65 587.607C468.191 587.799 467.714 587.889 467.246 587.889Z" fill="#371A45"/>
<path d="M501.525 580.3C508.481 577.859 515.231 574.203 518.205 566.974C517.626 575.263 511.355 581.907 505.048 586.675C500.375 589.94 496.271 582.521 501.525 580.3Z" fill="#371A45"/>
<path d="M424.095 613.358C423.058 613.358 422.03 612.917 421.311 612.065C420.014 610.526 420.208 608.23 421.745 606.933C428.832 600.954 435.74 593.385 438.276 578.645C438.617 576.663 440.508 575.336 442.481 575.673C444.463 576.014 445.794 577.896 445.453 579.878C442.513 596.967 434.194 605.957 426.441 612.499C425.756 613.076 424.922 613.358 424.093 613.358H424.095Z" fill="#371A45"/>
<path d="M463.159 607.583C468.242 603.929 472.343 599.018 474.291 592.872C474.759 599.739 472.276 606.797 468.474 612.593C465.012 617.319 458.649 611.321 463.159 607.583Z" fill="#371A45"/>
<g opacity="0.3">
<path d="M349.768 373.057C347.352 397.604 356.649 424.799 374.552 453.939L388.438 447.621L368.915 373.057H349.768Z" fill="#371A45"/>
</g>
<path d="M324.043 540.717L383.574 501.967C390.623 497.384 392.638 487.861 388.049 480.803L367.428 449.125C363.407 442.949 355.609 440.641 348.996 443.245C348.056 443.609 347.145 444.081 346.266 444.653L286.744 483.396C279.689 487.985 277.671 497.508 282.27 504.559L298.597 529.652L302.884 536.242C307.474 543.297 316.999 545.3 324.048 540.717H324.043Z" fill="white"/>
<path d="M324.043 540.717L383.574 501.967C390.623 497.384 392.638 487.861 388.049 480.803L367.428 449.125C363.407 442.949 355.609 440.641 348.996 443.245C348.056 443.609 347.145 444.081 346.266 444.653L286.744 483.396C279.689 487.985 277.671 497.508 282.27 504.559L298.597 529.652L302.884 536.242C307.474 543.297 316.999 545.3 324.048 540.717H324.043Z" fill="white"/>
<path d="M324.043 540.717L383.574 501.967C390.623 497.384 392.638 487.861 388.049 480.803L367.428 449.125C363.407 442.949 355.609 440.641 348.996 443.245C348.056 443.609 347.145 444.081 346.266 444.653L286.744 483.396C279.689 487.985 277.671 497.508 282.27 504.559L298.597 529.652L302.884 536.242C307.474 543.297 316.999 545.3 324.048 540.717H324.043Z" fill="white"/>
<g opacity="0.3">
<path d="M323.955 540.777L383.486 502.027C390.532 497.444 392.55 487.921 387.96 480.864L367.339 449.185C363.319 443.009 355.52 440.702 348.908 443.305C346.989 447.75 345.778 450.584 345.778 450.584C359.432 477.899 360.444 495.293 329.202 516.361C315.715 525.453 305.758 528.973 298.509 529.71L302.796 536.3C307.385 543.355 316.911 545.357 323.959 540.774L323.955 540.777Z" fill="#371A45"/>
</g>
<path d="M316.616 545.798C315.088 545.798 313.549 545.638 312.017 545.315C306.286 544.103 301.38 540.748 298.203 535.866L280.707 508.988C277.529 504.106 276.447 498.262 277.658 492.531C278.872 486.8 282.225 481.894 287.107 478.717L341.829 443.102C346.71 439.924 352.547 438.837 358.285 440.053C364.016 441.265 368.922 444.62 372.1 449.502L389.593 476.38C392.77 481.262 393.853 487.106 392.642 492.837C391.43 498.567 388.074 503.474 383.193 506.649L328.471 542.266C324.894 544.594 320.801 545.798 316.613 545.798H316.616ZM353.704 447.002C350.941 447.002 348.242 447.795 345.888 449.328L291.165 484.945C287.95 487.04 285.735 490.278 284.935 494.068C284.133 497.858 284.845 501.715 286.939 504.933L304.433 531.812C308.779 538.488 317.746 540.379 324.421 536.04L379.143 500.423C382.361 498.33 384.574 495.09 385.374 491.3C386.176 487.51 385.464 483.653 383.369 480.434L365.874 453.556C363.779 450.338 360.54 448.125 356.751 447.325C355.736 447.111 354.717 447.005 353.704 447.005V447.002Z" fill="#371A45"/>
<path d="M344.956 526.791L345.222 526.938L383.581 501.969C388.743 498.602 391.203 492.6 390.333 486.844C390.028 484.754 389.276 482.697 388.044 480.813L378.89 466.734L375.868 462.087L370.555 453.936L367.43 449.13C362.836 442.074 353.319 440.068 346.269 444.651L333.41 453.028C340.065 450.287 347.982 452.576 352.043 458.806L358.167 468.207L363.181 475.92L372.677 490.498C377.251 497.542 375.238 507.07 368.198 511.66L344.958 526.789L344.956 526.791Z" fill="white"/>
<g opacity="0.3">
<path d="M338.88 530.745L339.147 530.892L383.582 501.97C388.743 498.603 391.204 492.601 390.334 486.845C390.029 484.755 389.277 482.698 388.045 480.813L378.89 466.734L375.869 462.088L370.556 453.937C367.745 455.259 364.556 457.842 365.175 462.866C366.032 469.826 362.154 469.846 358.168 468.208L363.182 475.921L372.678 490.499C377.252 497.543 375.239 507.071 368.199 511.66L338.88 530.742V530.745Z" fill="#371A45"/>
</g>
<path d="M328.609 542.179L326.563 539.103C325.081 536.852 326.238 535.203 327.666 534.018L327.623 533.955L328.579 533.331C328.821 533.164 329.056 533.008 329.275 532.866L366.145 508.557C368.739 506.869 370.513 504.274 371.155 501.237C371.797 498.198 371.227 495.106 369.548 492.53L348.925 460.845C345.896 456.189 339.964 454.345 334.812 456.463L331.372 449.912L344.229 441.539C353.024 435.821 364.825 438.321 370.536 447.105L391.157 478.788C393.92 483.027 394.861 488.107 393.807 493.088C392.754 498.071 389.839 502.331 385.6 505.088L331.716 540.161L331.707 540.165L328.611 542.181L328.609 542.179ZM345.847 449.349C349.564 450.73 352.861 453.27 355.151 456.788L375.772 488.471C378.147 492.116 379.177 496.381 378.748 500.672L381.541 498.855C384.117 497.178 385.889 494.584 386.531 491.547C387.173 488.507 386.603 485.416 384.924 482.84L364.303 451.154C360.823 445.801 353.632 444.282 348.278 447.765L345.844 449.349H345.847Z" fill="#371A45"/>
<path d="M339.047 490.191C339.815 491.357 347.666 499.698 347.666 499.698C347.666 499.698 350.651 497.732 354.317 495.316C358.895 492.299 359.483 485.111 355.628 479.262C351.772 473.414 344.936 471.12 340.358 474.137C337.269 476.173 333.707 478.519 333.707 478.519C333.707 478.519 337.793 488.288 339.045 490.189L339.047 490.191Z" fill="#22A7F0"/>
<path d="M339.047 490.191C339.815 491.357 347.666 499.698 347.666 499.698C347.666 499.698 350.651 497.732 354.317 495.316C358.895 492.299 359.483 485.111 355.628 479.262C351.772 473.414 344.936 471.12 340.358 474.137C337.269 476.173 333.707 478.519 333.707 478.519C333.707 478.519 337.793 488.288 339.045 490.189L339.047 490.191Z" fill="#1C7AEA"/>
<path d="M348.108 501.093C346.727 501.093 345.362 500.534 344.359 499.459C337.889 492.523 337.365 491.73 337.168 491.429C336.429 490.306 334.886 487.007 332.583 481.626C331.604 479.339 332.4 476.684 334.479 475.317L339.123 472.257C341.927 470.408 345.428 470.047 348.985 471.24C352.343 472.368 355.373 474.777 357.511 478.022C362.042 484.896 361.168 493.497 355.559 497.194L350.939 500.238C350.069 500.812 349.086 501.09 348.11 501.09L348.108 501.093ZM340.924 488.946C341.037 489.109 341.884 490.205 347.651 496.385C347.862 496.611 348.203 496.65 348.458 496.478L353.077 493.432C356.612 491.102 356.912 485.301 353.746 480.499C352.158 478.09 349.956 476.316 347.547 475.509C345.335 474.765 343.22 474.946 341.597 476.017L336.953 479.077C336.698 479.247 336.598 479.574 336.718 479.855C339.774 486.991 340.705 488.611 340.922 488.944L340.924 488.946Z" fill="#371A45"/>
<path d="M347.673 499.684C352.252 496.666 352.839 489.479 348.984 483.631C345.129 477.783 338.293 475.488 333.714 478.507C329.135 481.525 328.548 488.712 332.402 494.56C336.257 500.408 343.094 502.703 347.673 499.684Z" fill="#22A7F0"/>
<g opacity="0.7">
<path d="M348.976 483.65C349.268 484.09 349.528 484.531 349.767 484.981C345.828 480.92 340.287 479.625 336.38 482.196C332.14 484.992 331.327 491.349 334.278 496.917C333.593 496.219 332.963 495.435 332.396 494.571C328.54 488.723 329.128 481.541 333.709 478.52C338.287 475.498 345.123 477.799 348.978 483.647L348.976 483.65Z" fill="white"/>
</g>
<path d="M348.979 483.648C352.83 489.49 352.247 496.679 347.666 499.7C343.083 502.715 336.251 500.421 332.396 494.57C331.786 493.651 331.287 492.69 330.902 491.725C334.71 494.873 339.553 495.68 343.065 493.366C346.92 490.83 347.951 485.332 345.876 480.166C347.024 481.12 348.079 482.288 348.979 483.648Z" fill="#1C7AEA"/>
<path d="M343.11 503.286C341.788 503.286 340.421 503.056 339.045 502.595C335.687 501.467 332.656 499.058 330.518 495.813C328.378 492.565 327.359 488.834 327.646 485.302C327.951 481.564 329.666 478.489 332.471 476.64C335.275 474.792 338.778 474.43 342.333 475.623C345.691 476.751 348.722 479.16 350.859 482.405C352.999 485.652 354.019 489.383 353.729 492.916C353.424 496.653 351.709 499.729 348.905 501.578C347.185 502.71 345.203 503.286 343.108 503.286H343.11ZM338.283 479.442C337.054 479.442 335.915 479.766 334.948 480.401C333.323 481.472 332.324 483.341 332.134 485.668C331.929 488.202 332.688 490.925 334.277 493.334C335.865 495.743 338.066 497.517 340.475 498.323C342.688 499.067 344.805 498.888 346.426 497.815C348.05 496.744 349.049 494.873 349.239 492.547C349.445 490.014 348.685 487.291 347.097 484.882C345.508 482.473 343.307 480.699 340.898 479.892C340.001 479.592 339.119 479.44 338.281 479.44L338.283 479.442Z" fill="#371A45"/>
<path d="M342.399 531.23C341.511 531.23 340.639 530.805 340.097 530.016L329.288 514.238C327.338 511.391 324.133 509.705 320.689 509.705C320.635 509.705 320.578 509.705 320.524 509.705C320.436 509.705 320.35 509.705 320.264 509.705C314.852 509.705 309.867 507.018 306.893 502.48L292.109 479.936C291.264 478.65 291.623 476.921 292.911 476.076C294.197 475.233 295.926 475.59 296.771 476.878L311.555 499.423C313.525 502.428 316.843 504.134 320.438 504.13C320.524 504.13 320.608 504.13 320.691 504.13C325.977 504.13 330.897 506.717 333.889 511.088L344.698 526.866C345.568 528.136 345.242 529.869 343.972 530.74C343.491 531.069 342.942 531.228 342.399 531.228V531.23Z" fill="#371A45"/>
<path d="M372.405 455.691C372.405 455.691 364.876 460.263 370.923 469.983C376.97 479.702 386.152 476.909 386.152 476.909C386.152 476.909 416.572 464.957 428.682 443.404C429.982 429.33 414.68 424.117 414.68 424.117C414.68 424.117 397.487 445.958 372.408 455.691H372.405Z" fill="white"/>
<g opacity="0.3">
<path d="M386.159 476.907C386.159 476.907 416.576 464.955 428.685 443.405C429.263 437.136 426.547 432.621 423.358 429.548C423.65 431.033 423.74 432.646 423.58 434.402C411.471 455.95 381.049 467.906 381.049 467.906C381.049 467.906 374.428 469.918 368.735 464.578C369.002 466.16 369.675 467.963 370.932 469.983C376.975 479.698 386.159 476.905 386.159 476.905V476.907Z" fill="#371A45"/>
</g>
<path d="M383.175 480.089C378.79 480.089 372.793 478.261 368.56 471.457C366.095 467.493 365.265 463.71 366.099 460.216C367.17 455.726 370.578 453.545 370.962 453.31L371.401 453.093C395.493 443.742 412.324 422.605 412.492 422.393L413.714 420.843L415.583 421.478C421.594 423.527 432.649 430.8 431.461 443.66L431.406 444.253L431.115 444.77C418.661 466.935 388.456 479 387.174 479.504L386.967 479.576C385.979 479.877 384.671 480.089 383.175 480.089ZM373.708 458.178C372.601 458.971 369.281 462.065 373.292 468.512C377.832 475.807 384.347 474.494 385.267 474.263C387.412 473.389 414.684 461.961 425.951 442.571C426.423 433.814 418.968 429.17 415.502 427.493C410.91 432.858 395.296 449.701 373.706 458.178H373.708Z" fill="#371A45"/>
<path d="M240.705 428.855C221.139 467.43 249.272 518.182 283.346 524.186C258.806 488.155 243.351 447.636 252.944 432.421L240.705 428.853V428.855Z" fill="white"/>
<g opacity="0.3">
<path d="M243.412 432.422C234.19 447.05 248.122 485.061 271.016 519.991C274.982 522.007 279.12 523.442 283.348 524.188C258.809 488.157 243.353 447.638 252.946 432.422L240.707 428.854C240.298 429.663 239.916 430.477 239.548 431.295L243.412 432.42V432.422Z" fill="#371A45"/>
</g>
<path d="M385.879 370.656C368.695 365.02 357.566 366.43 355.982 378.954C355.582 382.114 355.982 385.332 356.976 388.36C373.511 438.788 396.812 471.014 433.228 467.958C435.745 467.748 437.729 465.638 437.772 463.111C437.84 459.118 436.649 455.224 434.165 451.432C433.35 450.187 432.179 449.222 430.837 448.576C404.64 435.961 371.676 377.255 385.879 370.656Z" fill="white"/>
<g opacity="0.3">
<path d="M363.641 381.6C362.649 378.575 362.247 375.357 362.647 372.195C362.821 370.814 363.119 369.576 363.522 368.459C359.309 369.98 356.69 373.352 355.981 378.95C355.581 382.109 355.981 385.329 356.975 388.355C373.51 438.784 396.811 471.009 433.227 467.954C435.744 467.744 437.728 465.633 437.771 463.106C437.78 462.508 437.753 461.911 437.706 461.317C402.545 462.917 379.84 431.005 363.641 381.598V381.6Z" fill="#371A45"/>
</g>
<path d="M428.486 471.8C396.209 471.8 371.649 444.807 353.511 389.492C352.313 385.838 351.916 382.035 352.365 378.496C353.061 372.989 355.387 368.95 359.281 366.487C365.158 362.767 374.229 363.002 387.013 367.194C388.433 367.66 389.425 368.948 389.513 370.44C389.601 371.933 388.767 373.328 387.411 373.958C386.344 374.453 386.107 376.283 386.098 377.73C385.983 394.466 412.287 435.602 432.414 445.292C434.405 446.253 436.063 447.686 437.209 449.437C440.077 453.817 441.492 458.436 441.41 463.172C441.336 467.599 437.948 471.217 433.528 471.588C431.828 471.73 430.145 471.803 428.486 471.803V471.8ZM369.764 371.147C366.514 371.147 364.462 371.829 363.172 372.643C361.179 373.904 360.006 376.119 359.59 379.409C359.278 381.886 359.568 384.586 360.433 387.221C378.295 441.697 401.989 466.94 432.92 464.325C433.575 464.271 434.115 463.697 434.127 463.046C434.181 459.751 433.196 456.603 431.114 453.423C430.692 452.779 430.048 452.237 429.25 451.853C406.197 440.752 378.681 396.862 378.812 377.678C378.826 375.639 379.136 373.974 379.63 372.611C375.493 371.549 372.27 371.145 369.762 371.145L369.764 371.147Z" fill="#371A45"/>
<path d="M283.349 527.831C283.138 527.831 282.926 527.813 282.716 527.774C265.557 524.751 248.838 510.749 239.087 491.239C228.488 470.033 227.881 446.097 237.46 427.209C238.253 425.647 240.043 424.87 241.729 425.36L253.968 428.929C255.064 429.25 255.948 430.065 256.355 431.134C256.759 432.203 256.639 433.401 256.029 434.368C247.959 447.168 260.996 484.903 286.359 522.141C287.183 523.352 287.202 524.938 286.406 526.168C285.728 527.216 284.571 527.833 283.349 527.833V527.831ZM242.671 433.222C235.503 449.618 236.536 469.848 245.6 487.983C252.529 501.845 263.204 512.572 274.772 517.736C256.199 488.207 241.74 453.104 247.876 434.739L242.674 433.222H242.671Z" fill="#371A45"/>
<path d="M388.647 378.552C381.214 367.955 396.226 361.293 400.854 369.372L388.647 378.552Z" fill="#198BFD"/>
<path d="M407.425 364.382L383.778 382.169C381.293 384.038 380.794 387.567 382.663 390.051L384.471 392.455C386.34 394.94 389.869 395.439 392.354 393.57L416.001 375.783C418.486 373.914 418.985 370.385 417.116 367.9L415.308 365.496C413.439 363.012 409.91 362.513 407.425 364.382Z" fill="#CFE8FF"/>
<path d="M388.977 395.126C387.151 395.126 385.348 394.298 384.166 392.73L382.361 390.328C381.4 389.049 380.996 387.467 381.219 385.874C381.445 384.281 382.272 382.873 383.551 381.91L407.199 364.125C409.849 362.132 413.626 362.667 415.616 365.316L417.422 367.718C419.413 370.367 418.88 374.143 416.231 376.134L392.584 393.919C391.504 394.73 390.236 395.123 388.98 395.123L388.977 395.126ZM407.655 364.735L384.008 382.52C382.892 383.359 382.171 384.588 381.972 385.98C381.775 387.372 382.128 388.753 382.968 389.869L384.774 392.271C386.514 394.583 389.809 395.051 392.123 393.311L415.77 375.526C418.082 373.786 418.547 370.489 416.81 368.177L415.004 365.775C413.266 363.463 409.967 362.995 407.653 364.735H407.655Z" fill="#371A45"/>
<path d="M412.373 378.552C414.467 379.542 416.325 381.074 417.699 383.112L453.438 435.977C457.527 442.035 455.927 450.322 449.881 454.419C443.823 458.507 435.536 456.896 431.439 450.851L395.699 397.975C394.585 396.332 393.898 394.518 393.604 392.671" fill="#CFE8FF"/>
<path d="M442.473 457.068C438.082 457.068 433.764 454.964 431.122 451.065L395.382 398.19C394.266 396.544 393.543 394.707 393.227 392.732L393.979 392.612C394.275 394.477 394.96 396.208 396.013 397.762L431.752 450.638C435.741 456.523 443.777 458.08 449.666 454.105C455.549 450.119 457.099 442.083 453.122 436.191L417.382 383.327C416.099 381.422 414.311 379.892 412.209 378.897L412.537 378.208C414.761 379.261 416.654 380.884 418.015 382.899L453.754 435.764C457.964 442.004 456.322 450.514 450.093 454.735C447.757 456.311 445.101 457.065 442.471 457.065L442.473 457.068Z" fill="#371A45"/>
<path d="M388.975 397.558C386.41 397.558 383.875 396.396 382.216 394.193L380.41 391.79C379.059 389.994 378.487 387.77 378.806 385.533C379.122 383.296 380.286 381.318 382.085 379.965L405.732 362.18C409.452 359.382 414.758 360.132 417.558 363.852L419.363 366.254C422.161 369.976 421.411 375.28 417.691 378.078L394.042 395.863C392.525 397.004 390.745 397.555 388.977 397.555L388.975 397.558ZM409.113 366.679L385.466 384.464C384.869 384.911 384.483 385.571 384.379 386.322C384.272 387.07 384.46 387.811 384.91 388.407L386.715 390.81C387.649 392.048 389.416 392.299 390.657 391.368L414.306 373.583C415.544 372.65 415.795 370.882 414.864 369.642L413.058 367.239C412.125 365.999 410.358 365.75 409.115 366.681L409.113 366.679Z" fill="#371A45"/>
<path d="M442.477 459.5C437.304 459.5 432.219 457.021 429.107 452.431L393.366 399.553C392.051 397.612 391.194 395.445 390.823 393.115C390.579 391.581 391.626 390.137 393.162 389.892C394.685 389.648 396.139 390.695 396.383 392.231C396.622 393.739 397.176 395.142 398.028 396.396L433.77 449.274C437.003 454.047 443.528 455.313 448.305 452.088C453.073 448.856 454.332 442.334 451.105 437.553L415.368 384.69C414.326 383.147 412.875 381.906 411.171 381.097C409.765 380.433 409.164 378.754 409.831 377.348C410.495 375.945 412.174 375.344 413.58 376.008C416.199 377.246 418.432 379.16 420.034 381.54L455.771 434.402C460.732 441.754 458.797 451.778 451.46 456.752C448.705 458.61 445.575 459.5 442.477 459.5Z" fill="#371A45"/>
<path d="M388.012 382.553L386.342 380.171C382.638 374.894 383.784 370.734 384.794 368.722C386.493 365.342 390.209 363.088 394.258 362.978C398.059 362.887 401.447 364.743 403.295 367.974L404.529 370.13L388.012 382.553ZM394.552 368.603C394.505 368.603 394.457 368.603 394.412 368.603C392.437 368.657 390.595 369.719 389.824 371.249C389.325 372.241 389.348 373.294 389.628 374.291L396.599 369.045C395.856 368.686 395.103 368.6 394.552 368.6V368.603Z" fill="#371A45"/>
<path d="M460.157 423.965C458.614 428.164 455.473 431.452 451.543 433.187C449.9 433.931 448.119 434.392 446.25 434.528C422.436 436.374 408.89 409.577 421.67 388.994L417.695 383.116C416.321 381.078 414.463 379.548 412.368 378.556L415.993 375.83C417.333 374.818 418.099 373.308 418.212 371.731L432.029 372.8C434.777 373.003 437.367 374.174 439.337 376.077C454.831 391.053 466.586 406.456 460.157 423.965Z" fill="white"/>
<g opacity="0.3">
<path d="M453.382 430.024C429.568 431.87 416.022 405.073 428.802 384.49L424.827 378.612C423.453 376.574 421.595 375.044 419.5 374.052L422.178 372.038L418.212 371.731C418.099 373.308 417.333 374.816 415.993 375.83L412.368 378.556C414.463 379.548 416.321 381.078 417.695 383.116L421.67 388.994C408.89 409.577 422.436 436.376 446.25 434.528C448.119 434.392 449.897 433.931 451.543 433.187C453.567 432.295 455.375 430.982 456.871 429.353C455.753 429.701 454.589 429.936 453.382 430.024Z" fill="#371A45"/>
</g>
<path d="M412.371 381.368C411.516 381.368 410.671 380.979 410.118 380.245C409.182 379.002 409.433 377.237 410.676 376.304L414.301 373.578C414.94 373.095 415.345 372.347 415.401 371.531C415.512 369.981 416.866 368.815 418.411 368.923C419.961 369.034 421.13 370.381 421.019 371.931C420.845 374.367 419.632 376.606 417.69 378.073L414.059 380.803C413.55 381.183 412.958 381.368 412.368 381.368H412.371Z" fill="#371A45"/>
<path d="M421.67 391.807C420.768 391.807 419.88 391.373 419.335 390.568L415.36 384.69C414.319 383.147 412.868 381.906 411.164 381.097C409.758 380.433 409.157 378.754 409.824 377.348C410.488 375.945 412.167 375.344 413.573 376.008C416.192 377.246 418.425 379.16 420.027 381.54L424 387.413C424.87 388.702 424.533 390.451 423.245 391.323C422.761 391.651 422.212 391.807 421.67 391.807Z" fill="#371A45"/>
<path d="M418.429 368.922L428.422 369.462L430.919 369.618C434.962 369.636 439.1 371.191 441.927 374.113C454.973 386.368 469.886 403.315 464.295 422.582C460.381 438.155 444.232 441.38 431.021 435.16C420.8 430.336 414.253 419.335 413.769 408.293C413.29 400.838 415.478 393.369 419.46 387.218C422.031 384.63 425.046 382.461 428.684 381.609C428.198 384.366 426.928 386.752 425.333 388.958C424.827 389.647 424.278 390.296 423.71 390.928L424.061 390.474C417.652 400.768 418.531 415.136 426.926 423.913C434.307 432.252 452.047 435.258 456.799 422.781C463.102 405.516 448.675 390.183 437.448 378.728C435.911 377.069 433.945 376.074 431.701 375.882C430.874 375.797 428.804 375.625 427.961 375.539L417.995 374.533C414.404 374.102 414.793 368.805 418.429 368.92V368.922Z" fill="#371A45"/>
<path d="M186.209 417.802C200.559 428.345 217.605 435.269 236.052 437.379C239.815 437.809 243.625 438.042 247.482 438.062C249.36 438.078 251.256 438.033 253.168 437.951C258.924 437.676 264.553 436.941 270.031 435.782C274.754 434.792 279.364 433.479 283.83 431.886C289.226 429.963 294.417 427.61 299.373 424.883C301.176 423.881 302.95 422.835 304.69 421.746C336.527 401.712 357.221 365.424 355.752 324.977C353.6 265.394 304.177 219.381 245.374 222.188C234.05 222.737 223.187 225.042 213.07 228.866C211.883 229.302 210.703 229.774 209.537 230.269C206.405 231.575 203.352 233.024 200.383 234.61C193.517 238.282 187.097 242.685 181.224 247.701C175.348 252.709 170.006 258.345 165.312 264.483C163.818 266.433 162.388 268.433 161.023 270.492C158.98 273.577 157.084 276.759 155.353 280.06C146.693 296.469 142.067 315.318 142.791 335.167C144.027 369.442 160.905 399.217 186.209 417.807V417.802Z" fill="white"/>
<path d="M248.224 438.431C247.975 438.431 247.727 438.431 247.483 438.428C243.688 438.408 239.829 438.177 236.014 437.744C217.978 435.68 200.681 428.887 185.995 418.099C159.505 398.639 143.625 368.414 142.427 335.176C141.729 315.954 146.088 296.835 155.032 279.884C156.718 276.668 158.632 273.439 160.723 270.284C162.063 268.262 163.511 266.232 165.025 264.255C169.737 258.095 175.109 252.429 180.991 247.417C186.926 242.348 193.393 237.93 200.213 234.283C203.181 232.696 206.272 231.232 209.4 229.928C210.647 229.399 211.809 228.936 212.948 228.518C223.277 224.615 234.184 222.36 245.358 221.82C273.643 220.475 300.716 230.287 321.57 249.464C342.799 268.983 355.067 295.796 356.12 324.964C357.54 364.075 337.908 401.276 304.89 422.056C303.14 423.149 301.346 424.209 299.554 425.204C294.524 427.972 289.279 430.336 283.957 432.232C279.41 433.854 274.75 435.172 270.111 436.141C264.581 437.314 258.888 438.046 253.191 438.32C251.381 438.397 249.749 438.433 248.226 438.433L248.224 438.431ZM250.502 222.428C248.805 222.428 247.103 222.468 245.395 222.55C234.297 223.087 223.465 225.325 213.203 229.203C212.073 229.618 210.923 230.075 209.685 230.601C206.575 231.899 203.506 233.354 200.559 234.929C193.784 238.552 187.362 242.94 181.466 247.975C175.622 252.956 170.286 258.583 165.606 264.703C164.101 266.666 162.664 268.682 161.331 270.691C159.256 273.826 157.353 277.032 155.679 280.228C146.793 297.066 142.463 316.058 143.157 335.151C144.348 368.165 160.119 398.183 186.426 417.511C201.009 428.223 218.184 434.968 236.095 437.018C239.885 437.45 243.718 437.678 247.487 437.698C249.207 437.716 251.062 437.678 253.155 437.588C258.809 437.316 264.463 436.589 269.957 435.425C274.567 434.46 279.193 433.154 283.708 431.54C288.992 429.658 294.205 427.31 299.197 424.562C300.978 423.574 302.761 422.521 304.499 421.434C337.298 400.795 356.798 363.84 355.388 324.991C354.342 296.022 342.157 269.392 321.075 250.005C301.624 232.118 276.73 222.432 250.502 222.432V222.428Z" fill="#371A45"/>
<g opacity="0.3">
<path d="M355.749 324.973C357.222 365.422 336.526 401.715 304.685 421.742C302.945 422.835 301.173 423.88 299.37 424.878C294.414 427.608 289.221 429.958 283.829 431.884C279.359 433.475 274.749 434.792 270.03 435.78C264.55 436.944 258.923 437.676 253.163 437.954C251.253 438.028 249.357 438.076 247.479 438.065C243.62 438.042 239.812 437.8 236.049 437.375C217.6 435.265 200.554 428.345 186.204 417.798C178.319 412.009 171.248 405.127 165.219 397.365C179.142 407.107 195.465 413.496 213.064 415.509C216.827 415.945 220.637 416.176 224.495 416.198C226.368 416.214 228.264 416.167 230.178 416.088C235.938 415.81 241.565 415.077 247.041 413.92C251.766 412.926 256.37 411.615 260.84 410.024C266.232 408.099 271.429 405.744 276.381 403.019C278.188 402.016 279.958 400.969 281.7 399.878C313.539 379.849 334.233 343.562 332.764 303.109C331.914 279.509 323.639 258.045 310.314 240.897C336.741 259.365 354.483 289.805 355.751 324.975L355.749 324.973Z" fill="#371A45"/>
</g>
<path d="M248.221 440.888C247.965 440.888 247.71 440.888 247.461 440.886C243.586 440.865 239.638 440.628 235.735 440.185C217.272 438.072 199.569 431.119 184.538 420.079C157.441 400.172 141.194 369.258 139.97 335.265C139.256 315.616 143.712 296.07 152.858 278.739C154.58 275.456 156.537 272.154 158.672 268.929C160.044 266.859 161.524 264.785 163.074 262.762C167.89 256.466 173.381 250.674 179.397 245.547C185.465 240.367 192.077 235.847 199.056 232.116C202.093 230.494 205.254 228.993 208.454 227.66C209.724 227.12 210.924 226.645 212.102 226.211C222.651 222.225 233.808 219.92 245.24 219.366C274.214 217.988 301.892 228.031 323.234 247.655C344.949 267.623 357.5 295.046 358.578 324.874C360.029 364.855 339.959 402.891 306.199 424.133C304.41 425.254 302.577 426.335 300.746 427.349C295.596 430.185 290.227 432.603 284.783 434.545C280.132 436.206 275.364 437.55 270.614 438.544C264.962 439.742 259.136 440.492 253.308 440.77C251.45 440.849 249.782 440.888 248.225 440.888H248.221ZM250.496 224.885C248.84 224.885 247.177 224.926 245.509 225.005C234.669 225.529 224.09 227.717 214.068 231.502C212.954 231.911 211.842 232.354 210.64 232.862C207.587 234.135 204.59 235.556 201.711 237.095C195.092 240.634 188.816 244.923 183.056 249.843C177.343 254.713 172.127 260.213 167.553 266.193C166.082 268.116 164.677 270.084 163.375 272.046C161.348 275.108 159.488 278.244 157.852 281.365C149.163 297.828 144.932 316.393 145.61 335.059C146.774 367.319 162.179 396.649 187.881 415.528C202.118 425.989 218.888 432.574 236.372 434.574C240.072 434.996 243.816 435.218 247.498 435.238C249.184 435.254 250.996 435.216 253.048 435.13C258.557 434.865 264.08 434.156 269.445 433.017C273.951 432.075 278.469 430.798 282.88 429.223C288.042 427.383 293.133 425.089 298.01 422.405C299.745 421.442 301.492 420.411 303.192 419.347C335.248 399.176 354.309 363.052 352.929 325.073C351.907 296.764 340.002 270.744 319.408 251.807C300.414 234.342 276.107 224.883 250.494 224.883L250.496 224.885Z" fill="#371A45"/>
<path d="M248.221 441.705C247.963 441.705 247.706 441.705 247.455 441.703C243.552 441.683 239.575 441.445 235.643 440.998C217.037 438.871 199.198 431.864 184.055 420.738C156.754 400.682 140.388 369.537 139.152 335.294C138.433 315.502 142.921 295.812 152.132 278.357C153.866 275.051 155.838 271.724 157.988 268.477C159.371 266.391 160.862 264.301 162.421 262.264C167.271 255.923 172.803 250.088 178.862 244.925C184.972 239.707 191.637 235.153 198.665 231.395C201.725 229.759 204.911 228.249 208.136 226.905C209.413 226.362 210.624 225.881 211.815 225.442C222.436 221.429 233.679 219.106 245.195 218.548C274.385 217.149 302.279 227.277 323.783 247.051C345.661 267.168 358.305 294.795 359.39 324.842C360.852 365.115 340.635 403.426 306.629 424.824C304.826 425.954 302.979 427.041 301.138 428.065C295.947 430.924 290.537 433.36 285.05 435.314C280.363 436.987 275.561 438.345 270.774 439.344C265.079 440.551 259.211 441.308 253.339 441.588C251.466 441.667 249.787 441.705 248.216 441.705H248.221ZM250.494 225.702C248.849 225.702 247.202 225.741 245.548 225.82C234.795 226.34 224.3 228.509 214.359 232.265C213.25 232.672 212.149 233.11 210.963 233.614C207.93 234.88 204.954 236.29 202.1 237.815C195.533 241.325 189.304 245.582 183.589 250.463C177.919 255.295 172.744 260.753 168.204 266.689C166.744 268.596 165.348 270.551 164.057 272.497C162.044 275.536 160.2 278.648 158.577 281.744C149.956 298.083 145.755 316.505 146.428 335.027C147.583 367.035 162.867 396.135 188.364 414.865C202.488 425.24 219.121 431.773 236.465 433.757C240.137 434.175 243.85 434.397 247.502 434.417C249.172 434.429 250.976 434.395 253.014 434.311C258.476 434.049 263.954 433.344 269.276 432.216C273.748 431.281 278.229 430.015 282.605 428.451C287.728 426.628 292.776 424.352 297.617 421.688C299.339 420.734 301.072 419.71 302.76 418.653C334.567 398.637 353.482 362.789 352.113 325.104C351.098 297.016 339.288 271.2 318.855 252.411C300.014 235.085 275.902 225.702 250.494 225.702Z" fill="#371A45"/>
<path d="M210.098 430.948C285.162 443.172 348.727 377.295 320.689 306.625C301.613 258.547 240.24 240.855 195.658 262.87C163.211 278.892 138.299 308.851 148.536 366.43C148.536 366.43 156.958 391.168 170.581 403.726C184.203 416.284 199.565 426.144 199.565 426.144L210.096 430.944L210.098 430.948Z" fill="#474464"/>
<path d="M320.689 306.627C348.727 377.292 285.16 443.171 210.101 430.95L207.968 429.974C275.329 410.821 319.722 343.073 292.689 271.075C304.89 279.843 314.8 291.791 320.689 306.627Z" fill="#6E62E5"/>
<path d="M248.221 441.705C247.963 441.705 247.706 441.705 247.455 441.703C243.552 441.682 239.575 441.445 235.643 440.998C217.037 438.871 199.198 431.863 184.055 420.738C156.754 400.682 140.388 369.537 139.152 335.293C138.433 315.502 142.921 295.812 152.132 278.357L152.306 278.027L152.544 277.74C161.694 266.644 173.944 257.259 188.954 249.846C215.695 236.642 248.933 235.404 277.863 246.533C304.525 256.789 324.633 276.117 334.486 300.953C345.184 327.924 345.001 355.51 333.957 380.728C322.459 406.98 299.635 428.286 271.341 439.183L270.788 439.348C265.086 440.557 259.215 441.312 253.344 441.594C251.471 441.673 249.792 441.712 248.221 441.712V441.705ZM158.399 282.083C149.9 298.331 145.759 316.632 146.428 335.027C147.583 367.035 162.867 396.135 188.364 414.865C202.488 425.24 219.121 431.773 236.465 433.757C240.137 434.175 243.85 434.397 247.502 434.417C249.172 434.428 250.976 434.394 253.014 434.311C258.379 434.053 263.76 433.369 268.991 432.277C295.359 422.044 316.595 402.201 327.282 377.801C337.53 354.405 337.679 328.76 327.713 303.635C318.62 280.711 299.987 262.845 275.246 253.329C248.178 242.918 217.125 244.054 192.177 256.375C178.229 263.263 166.866 271.911 158.399 282.083Z" fill="#371A45"/>
<path d="M361.435 281.479C371.539 300.051 369.13 321.782 356.048 330.019C342.965 338.254 324.168 329.874 314.064 311.303C313.999 311.187 313.935 311.063 313.874 310.943C303.99 292.453 306.46 270.942 319.452 262.766C329.558 256.404 343.074 259.959 353.359 270.463C356.384 273.556 359.137 277.258 361.435 281.482V281.479Z" fill="white"/>
<g opacity="0.3">
<path d="M361.436 281.48C371.54 300.052 369.131 321.782 356.048 330.019C342.966 338.254 324.169 329.875 314.065 311.303C313.999 311.188 313.936 311.064 313.875 310.944C316.35 311.945 319.61 312.413 322.297 309.871C327.005 305.416 330.04 287.473 330.04 287.473C330.04 287.473 340.105 280.029 353.359 270.463C356.385 273.557 359.137 277.259 361.436 281.482V281.48Z" fill="#371A45"/>
</g>
<path d="M344.932 336.835C342.561 336.835 340.123 336.514 337.646 335.867C327.009 333.09 317.248 324.769 310.864 313.038C299.875 292.84 302.86 268.904 317.515 259.679C323.452 255.941 330.487 254.987 337.858 256.911C348.495 259.688 358.256 268.009 364.637 279.737C375.627 299.936 372.642 323.872 357.987 333.097C354.045 335.578 349.618 336.835 344.932 336.835ZM330.615 263.236C327.271 263.236 324.148 264.113 321.395 265.844C309.929 273.062 308.073 292.673 317.262 309.558C322.606 319.382 330.916 326.582 339.483 328.819C344.857 330.222 349.917 329.571 354.106 326.934C365.573 319.716 367.428 300.105 358.24 283.22C352.895 273.396 344.588 266.196 336.019 263.959C334.172 263.478 332.362 263.238 330.613 263.238L330.615 263.236Z" fill="#371A45"/>
<path d="M358.694 322.96C370.286 318.191 374.493 301.709 368.091 286.145C361.689 270.581 347.102 261.83 335.51 266.598C323.918 271.367 319.711 287.849 326.113 303.413C332.515 318.977 347.102 327.728 358.694 322.96Z" fill="white"/>
<path d="M352.039 324.617C339.174 324.617 326.399 311.702 323.391 295.51C321.671 286.252 323.409 277.569 328.157 271.687C331.603 267.416 336.261 265.075 341.625 264.919C354.653 264.537 367.776 277.592 370.827 294.017C372.547 303.275 370.811 311.958 366.063 317.842C362.617 322.113 357.96 324.454 352.595 324.61C352.409 324.615 352.224 324.617 352.041 324.617H352.039ZM342.184 265.671C342.005 265.671 341.827 265.671 341.648 265.678C336.514 265.827 332.053 268.069 328.749 272.162C324.141 277.87 322.46 286.331 324.139 295.368C327.083 311.212 339.524 323.851 352.037 323.853C352.215 323.853 352.394 323.853 352.572 323.847C357.707 323.697 362.167 321.456 365.471 317.363C370.079 311.652 371.761 303.194 370.081 294.154C367.139 278.311 354.699 265.669 342.186 265.669L342.184 265.671Z" fill="#371A45"/>
<g opacity="0.3">
<path d="M334.578 316.666C330.682 312.449 327.925 307.122 326.413 301.509C336.103 310.356 348.429 309.224 354.776 298.485C358.88 291.547 359.538 282.189 357.197 273.505C357.811 274.059 358.415 274.666 359.007 275.304C368.923 286.045 371.495 304.011 364.747 315.434C357.999 326.855 344.492 327.4 334.578 316.666Z" fill="#371A45"/>
</g>
<path d="M353.718 327.414C351.93 327.414 350.091 327.172 348.215 326.686C339.585 324.451 331.214 317.145 325.82 307.138C316.616 290.063 318.476 270.879 330.055 263.464C334.505 260.615 339.827 259.876 345.442 261.329C354.073 263.564 362.445 270.87 367.84 280.877C377.042 297.952 375.184 317.136 363.605 324.55C360.64 326.451 357.286 327.411 353.718 327.411V327.414ZM339.976 267.901C338.075 267.901 335.978 268.323 333.983 269.6C325.874 274.793 325.072 290.404 332.231 303.685C336.681 311.938 343.338 317.902 350.041 319.638C352.554 320.288 356.265 320.605 359.675 318.419C367.781 313.226 368.583 297.615 361.426 284.334C356.977 276.081 350.319 270.117 343.616 268.382C342.575 268.113 341.323 267.901 339.976 267.901Z" fill="#371A45"/>
<g opacity="0.5">
<path d="M228.61 270.985C228.61 270.985 187.759 294.501 176.145 330.403C176.134 330.442 176.12 330.478 176.109 330.516C173.671 338.076 173.291 346.145 174.943 353.874C177.131 364.098 180.118 370.8 182.972 376.597C191.666 394.221 199.01 400.798 199.01 400.798C184.473 396.603 173.655 388.915 166.27 374.308C165.547 372.866 164.851 371.352 164.188 369.774C164.035 369.411 163.89 369.049 163.75 368.681C163.741 368.681 163.741 368.672 163.745 368.658C162.625 365.363 161.312 360.977 160.24 355.899C157.002 340.586 155.915 318.996 168.722 302.128C192.665 270.585 229.143 268.404 228.612 270.987L228.61 270.985Z" fill="white"/>
</g>
<g opacity="0.5">
<path d="M291.4 309.935C297.596 304.952 297.95 295.107 292.191 287.946C286.431 280.785 276.739 279.02 270.543 284.004C264.347 288.987 263.993 298.832 269.753 305.993C275.512 313.154 285.204 314.919 291.4 309.935Z" fill="white"/>
</g>
<g opacity="0.5">
<path d="M305.686 324.629C308.053 322.347 307.839 318.286 305.208 315.557C302.577 312.828 298.526 312.465 296.159 314.747C293.793 317.028 294.007 321.09 296.637 323.819C299.268 326.548 303.319 326.911 305.686 324.629Z" fill="white"/>
</g>
<path d="M379.021 161.137C379.656 164.509 381.027 167.808 383.36 169.973C385.396 171.865 387.981 172.746 390.492 173.584C386.663 172.721 382.578 174.129 379.54 176.949C376.503 179.77 374.483 183.898 373.577 188.271C374.32 184.124 372.939 179.699 370.456 176.581C368.002 173.498 364.625 171.648 361.147 170.635C372.241 171.541 374.612 161.162 378.413 151.126C378.467 154.468 378.401 157.842 379.021 161.137Z" fill="#FEDA24"/>
<path d="M711.824 68.7001C712.459 72.0718 713.831 75.3712 716.163 77.5361C718.199 79.4253 720.785 80.3089 723.295 81.1473C719.467 80.2841 715.381 81.692 712.344 84.5122C709.307 87.3325 707.287 91.4613 706.38 95.8341C707.124 91.6873 705.741 87.2625 703.259 84.1439C700.805 81.0615 697.429 79.2106 693.951 78.1982C705.045 79.1044 707.415 68.7249 711.216 58.689C711.271 62.0313 711.205 65.4052 711.824 68.7001Z" fill="#FEDA24"/>
<path d="M559.051 704.917C559.684 708.289 561.058 711.588 563.39 713.753C565.426 715.645 568.011 716.526 570.522 717.365C566.694 716.501 562.608 717.909 559.571 720.73C556.533 723.55 554.513 727.679 553.607 732.051C554.35 727.905 552.967 723.48 550.486 720.361C548.032 717.279 544.656 715.428 541.178 714.416C552.271 715.322 554.642 704.942 558.443 694.906C558.497 698.249 558.432 701.623 559.051 704.917Z" fill="#FEDA24"/>
<path d="M473.273 765.863C473.909 769.234 475.28 772.534 477.612 774.699C479.649 776.59 482.234 777.471 484.744 778.31C480.916 777.447 476.83 778.855 473.793 781.675C470.756 784.495 468.736 788.624 467.83 792.997C468.573 788.85 467.192 784.425 464.709 781.306C462.254 778.224 458.878 776.373 455.4 775.361C466.494 776.267 468.865 765.888 472.666 755.852C472.72 759.194 472.654 762.568 473.273 765.863Z" fill="#FEDA24"/>
<path d="M679.991 807.234C680.626 810.605 681.998 813.905 684.33 816.07C686.366 817.959 688.952 818.843 691.462 819.681C687.634 818.818 683.548 820.226 680.511 823.046C677.474 825.866 675.454 829.995 674.547 834.368C675.291 830.221 673.908 825.796 671.426 822.678C668.972 819.595 665.596 817.744 662.118 816.732C673.212 817.638 675.582 807.259 679.383 797.223C679.438 800.565 679.372 803.939 679.991 807.234Z" fill="#FEDA24"/>
<path d="M100.096 218.155C100.731 221.526 102.103 224.826 104.435 226.991C106.471 228.882 109.056 229.764 111.567 230.602C107.739 229.739 103.653 231.147 100.616 233.967C97.5783 236.787 95.558 240.916 94.6518 245.289C95.3953 241.142 94.0123 236.717 91.531 233.598C89.0768 230.516 85.7006 228.665 82.2227 227.653C93.3162 228.559 95.6868 218.18 99.4879 208.144C99.5421 211.486 99.4766 214.86 100.096 218.155Z" fill="#FEDA24"/>
<path d="M662.927 130.388C663.291 132.32 664.077 134.209 665.413 135.447C666.579 136.53 668.059 137.034 669.499 137.515C667.307 137.02 664.968 137.827 663.228 139.443C661.487 141.059 660.33 143.422 659.813 145.926C660.24 143.551 659.447 141.018 658.025 139.233C656.62 137.468 654.685 136.408 652.694 135.827C659.049 136.347 660.405 130.401 662.583 124.654C662.615 126.568 662.577 128.501 662.931 130.388H662.927Z" fill="#FEDA24"/>
<path d="M419.388 139.612C419.856 142.1 420.868 144.532 422.588 146.129C424.09 147.524 425.996 148.174 427.849 148.791C425.026 148.156 422.014 149.194 419.772 151.273C417.532 153.352 416.043 156.398 415.374 159.623C415.923 156.565 414.904 153.302 413.071 151.002C411.261 148.728 408.771 147.363 406.206 146.617C414.389 147.286 416.136 139.63 418.94 132.229C418.981 134.694 418.931 137.183 419.388 139.612Z" fill="#FEDA24"/>
<path d="M120.95 603.457C115.5 595.854 107.199 590.345 98.0739 588.275C95.8186 600.474 104.304 613.685 116.338 616.706C120.001 617.626 124.272 617.931 126.595 620.912C130.331 610.259 123.411 597.156 112.508 594.234" fill="white"/>
<path d="M594.304 776.643C596.263 782.859 591.212 788.965 586.266 793.212C584.103 795.067 581.879 796.852 579.599 798.561C572.824 803.641 550.37 820.927 541.29 818.21C535.137 816.368 538.296 815.437 541.597 809.996C545.028 804.341 591.847 768.851 594.302 776.64L594.304 776.643Z" fill="white"/>
<path d="M564.192 841.801C571.216 834.78 580.185 827.162 589.83 829.53C591.019 832.032 589.288 834.922 587.405 836.956C580.576 844.33 570.545 848.628 560.497 848.486C559.408 848.47 558.163 848.323 557.544 847.428C556.821 846.384 557.374 844.936 558.12 843.907C560.457 840.678 564.656 838.906 568.599 839.482" fill="white"/>
</svg>
