<svg width="817" height="817" viewBox="0 0 817 817" fill="none" xmlns="http://www.w3.org/2000/svg">
<path d="M221.226 183.422C328.387 100.401 551.113 107.052 668.165 268.114C731.44 355.135 695.251 584.656 548.874 664.699C402.498 744.742 257.539 677.867 182.334 593.073C107.129 508.279 58.8722 309.219 221.226 183.422Z" fill="#263238"/>
<path opacity="0.1" d="M303.589 187.352C221.231 229.525 177.744 323.669 186.368 331.396C194.993 339.123 207.25 319.432 217.574 311.769C227.897 304.107 199.908 381.228 209.832 406.431C219.755 431.634 231.498 326.412 276.124 278.284C320.75 230.155 294.538 241.652 284.849 235.998C275.16 230.344 323.544 180.635 382.392 171.003C441.24 161.371 489.624 174.055 515.066 184.098C515.057 184.004 427.556 123.859 303.589 187.352Z" fill="white"/>
<path opacity="0.1" d="M351.638 294.29C342.408 274.311 384.669 238.823 434.466 237.424C484.264 236.024 507.285 257.152 499.366 261.705C491.446 266.258 544.138 259.217 593.448 298.671C642.758 338.125 670.223 405.613 650.399 468.961C650.399 468.961 657.457 419.128 613.468 369.529C569.48 319.93 501.079 353.428 478.119 347.805C455.159 342.182 448.807 313.279 468.6 293.466C488.392 273.653 449.47 260.122 424.703 277.053C399.936 293.983 385.378 313.474 378.691 311.282C372.003 309.09 318.694 364.065 340.562 419.545C362.43 475.025 335.07 474.265 321.75 433.254C308.431 392.242 355.022 307.972 366.423 295.871C377.824 283.771 353.784 298.934 351.638 294.29Z" fill="white"/>
<path opacity="0.1" d="M257.48 472.584C273.45 443.362 291.304 522.285 340.375 573.49C389.446 624.695 492.342 620.428 538.276 578.531C584.21 536.635 565.967 446.578 508.736 448.924C508.736 448.924 549.261 422.366 587.428 456.527C625.596 490.688 631.689 541.915 603.535 565.645C575.38 589.376 573.8 619.829 562.418 627.683C551.037 635.538 561.979 618.563 549.863 615.056C537.748 611.55 498.54 651.2 426.401 665.108C354.262 679.016 323.848 661.52 287.424 632.655C251.001 603.79 303.205 629.878 309.357 614.875C315.51 599.873 292.048 589.287 280.495 570.64C268.943 551.994 264.407 529.391 283.565 533.494C302.722 537.597 249.776 486.662 257.48 472.584Z" fill="white"/>
</svg>
